<svg xmlns="http://www.w3.org/2000/svg" xmlns:xlink="http://www.w3.org/1999/xlink" width="6680" height="2340" viewBox="-2700 -1620 6680 2340">
  <defs>
    <style>
      .cls-1 {
        clip-path: url(#clip-SPRK_default_preset_name_custom_1);
      }

      .cls-2, .cls-20, .cls-3 {
        fill: #fff;
      }

      .cls-2, .cls-8 {
        stroke: #707070;
      }

      .cls-12, .cls-15, .cls-4, .cls-5, .cls-6 {
        fill: #707070;
        font-family: SegoeUI, Segoe UI;
      }

      .cls-4 {
        font-size: 40px;
      }

      .cls-5 {
        font-size: 20px;
      }

      .cls-6 {
        font-size: 50px;
      }

      .cls-7 {
        clip-path: url(#clip-SPRK_default_preset_name_custom_2);
      }

      .cls-18, .cls-8 {
        fill: none;
      }

      .cls-9 {
        clip-path: url(#clip-SPRK_default_preset_name_custom_3);
      }

      .cls-10 {
        clip-path: url(#clip-SPRK_default_preset_name_custom_4);
      }

      .cls-11 {
        clip-path: url(#clip-SPRK_default_preset_name_custom_6);
      }

      .cls-12, .cls-15 {
        font-size: 70px;
      }

      .cls-12 {
        opacity: 0.7;
      }

      .cls-13 {
        clip-path: url(#clip-SPRK_default_preset_name_custom_5);
      }

      .cls-14 {
        clip-path: url(#clip-SPRK_default_preset_name_custom_7);
      }

      .cls-16 {
        clip-path: url(#clip-SPRK_default_preset_name_custom_8);
      }

      .cls-17, .cls-19 {
        stroke: none;
      }

      .cls-19 {
        fill: #707070;
      }
    </style>
    <clipPath id="clip-SPRK_default_preset_name_custom_1">
      <rect x="650" width="1280" height="720"/>
    </clipPath>
    <clipPath id="clip-SPRK_default_preset_name_custom_2">
      <rect y="-810" width="1280" height="720"/>
    </clipPath>
    <clipPath id="clip-SPRK_default_preset_name_custom_3">
      <rect y="-1620" width="1280" height="720"/>
    </clipPath>
    <clipPath id="clip-SPRK_default_preset_name_custom_4">
      <rect x="1350" y="-810" width="1280" height="720"/>
    </clipPath>
    <clipPath id="clip-SPRK_default_preset_name_custom_6">
      <rect x="1350" y="-1620" width="1280" height="720"/>
    </clipPath>
    <clipPath id="clip-SPRK_default_preset_name_custom_5">
      <rect x="2700" y="-810" width="1280" height="720"/>
    </clipPath>
    <clipPath id="clip-SPRK_default_preset_name_custom_7">
      <rect x="-1350" y="-810" width="1280" height="720"/>
    </clipPath>
    <clipPath id="clip-SPRK_default_preset_name_custom_8">
      <rect x="-2700" y="-810" width="1280" height="720"/>
    </clipPath>
  </defs>
  <g id="SPRK_default_preset_name_custom_1" data-name="SPRK_default_preset_name_custom – 1" class="cls-1">
    <rect class="cls-20" x="650" width="1280" height="720"/>
    <g id="Groupe_2" data-name="Groupe 2" transform="translate(650)">
      <g id="Ellipse_1" data-name="Ellipse 1" class="cls-2" transform="translate(6 542)">
        <ellipse class="cls-17" cx="110.5" cy="89" rx="110.5" ry="89"/>
        <ellipse class="cls-18" cx="110.5" cy="89" rx="110" ry="88.5"/>
      </g>
    </g>
    <g id="Tracé_1" data-name="Tracé 1" class="cls-3" transform="translate(1526 26)">
      <path class="cls-17" d="M 190.5 88.5 L 0.5 88.5 L 0.5 0.5 L 190.5 0.5 L 190.5 88.5 Z"/>
      <path class="cls-19" d="M 1 1 L 1 88 L 190 88 L 190 1 L 1 1 M 0 0 L 191 0 L 191 89 L 0 89 L 0 0 Z"/>
    </g>
    <g id="Ellipse_2" data-name="Ellipse 2" class="cls-2" transform="translate(1783 26)">
      <circle class="cls-17" cx="44.5" cy="44.5" r="44.5"/>
      <circle class="cls-18" cx="44.5" cy="44.5" r="44"/>
    </g>
    <g id="Groupe_3" data-name="Groupe 3" transform="translate(650)">
      <text id="Skins" class="cls-4" transform="translate(70 605)"><tspan x="0" y="43">Skins</tspan></text>
    </g>
    <text id="Shop" class="cls-5" transform="translate(1597 56)"><tspan x="0" y="22">Shop</tspan></text>
    <text id="Settings" class="cls-5" transform="translate(1790 77)"><tspan x="0" y="0">Settings</tspan></text>
    <g id="Rectangle_18" data-name="Rectangle 18" class="cls-2" transform="translate(1002 360)">
      <rect class="cls-17" width="607" height="120"/>
      <rect class="cls-18" x="0.5" y="0.5" width="606" height="119"/>
    </g>
    <text id="Play" class="cls-6" transform="translate(1249 387)"><tspan x="0" y="54">Play</tspan></text>
    <g id="Groupe_1" data-name="Groupe 1" transform="translate(650)">
      <g id="Rectangle_19" data-name="Rectangle 19" class="cls-2" transform="translate(6)">
        <rect class="cls-17" width="111" height="102"/>
        <rect class="cls-18" x="0.5" y="0.5" width="110" height="101"/>
      </g>
    </g>
    <text id="Infos" class="cls-4" transform="matrix(1, -0.017, 0.017, 1, 672.08, 26.61)"><tspan x="0" y="43">Infos</tspan></text>
  </g>
  <g id="SPRK_default_preset_name_custom_2" data-name="SPRK_default_preset_name_custom – 2" class="cls-7">
    <rect class="cls-20" y="-810" width="1280" height="720"/>
    <g id="Rectangle_2" data-name="Rectangle 2" class="cls-2" transform="translate(288 -696)">
      <rect class="cls-17" width="666" height="466" rx="76"/>
      <rect class="cls-18" x="0.5" y="0.5" width="665" height="465" rx="75.5"/>
    </g>
    <g id="Rectangle_3" data-name="Rectangle 3" class="cls-2" transform="translate(954 -398)">
      <rect class="cls-17" width="173" height="168"/>
      <rect class="cls-18" x="0.5" y="0.5" width="172" height="167"/>
    </g>
    <g id="Rectangle_4" data-name="Rectangle 4" class="cls-2" transform="translate(353 -775)">
      <rect class="cls-17" width="245" height="79" rx="26"/>
      <rect class="cls-18" x="0.5" y="0.5" width="244" height="78" rx="25.5"/>
    </g>
    <g id="Rectangle_6" data-name="Rectangle 6" class="cls-2" transform="translate(337 -645)">
      <rect class="cls-17" width="148" height="135"/>
      <rect class="cls-18" x="0.5" y="0.5" width="147" height="134"/>
    </g>
    <g id="Rectangle_7" data-name="Rectangle 7" class="cls-2" transform="translate(559 -645)">
      <rect class="cls-17" width="155" height="135"/>
      <rect class="cls-18" x="0.5" y="0.5" width="154" height="134"/>
    </g>
    <g id="Rectangle_8" data-name="Rectangle 8" class="cls-2" transform="translate(793 -645)">
      <rect class="cls-17" width="141" height="135"/>
      <rect class="cls-18" x="0.5" y="0.5" width="140" height="134"/>
    </g>
    <g id="Rectangle_9" data-name="Rectangle 9" class="cls-2" transform="translate(337 -450)">
      <rect class="cls-17" width="148" height="136"/>
      <rect class="cls-18" x="0.5" y="0.5" width="147" height="135"/>
    </g>
    <g id="Rectangle_10" data-name="Rectangle 10" class="cls-2" transform="translate(559 -450)">
      <rect class="cls-17" width="155" height="146"/>
      <rect class="cls-18" x="0.5" y="0.5" width="154" height="145"/>
    </g>
    <g id="Rectangle_11" data-name="Rectangle 11" class="cls-2" transform="translate(793 -450)">
      <rect class="cls-17" width="141" height="159"/>
      <rect class="cls-18" x="0.5" y="0.5" width="140" height="158"/>
    </g>
    <g id="Rectangle_14" data-name="Rectangle 14" class="cls-2" transform="translate(821 -577)">
      <rect class="cls-17" width="92" height="18"/>
      <rect class="cls-18" x="0.5" y="0.5" width="91" height="17"/>
    </g>
    <g id="Rectangle_15" data-name="Rectangle 15" class="cls-2" transform="translate(821 -370)">
      <rect class="cls-17" width="92" height="26"/>
      <rect class="cls-18" x="0.5" y="0.5" width="91" height="25"/>
    </g>
    <g id="Rectangle_16" data-name="Rectangle 16" class="cls-2" transform="translate(598 -382)">
      <rect class="cls-17" width="84" height="25"/>
      <rect class="cls-18" x="0.5" y="0.5" width="83" height="24"/>
    </g>
    <g id="Rectangle_17" data-name="Rectangle 17" class="cls-2" transform="translate(362 -382)">
      <rect class="cls-17" width="97" height="25"/>
      <rect class="cls-18" x="0.5" y="0.5" width="96" height="24"/>
    </g>
    <line id="Ligne_3" data-name="Ligne 3" class="cls-8" x2="41" y2="51" transform="translate(913.5 -695.5)"/>
    <line id="Ligne_4" data-name="Ligne 4" class="cls-8" y1="26" x2="41" transform="translate(913.5 -695.5)"/>
  </g>
  <g id="SPRK_default_preset_name_custom_3" data-name="SPRK_default_preset_name_custom – 3" class="cls-9">
    <rect class="cls-20" y="-1620" width="1280" height="720"/>
    <g id="Rectangle_5" data-name="Rectangle 5" class="cls-2" transform="translate(436 -1472)">
      <rect class="cls-17" width="452" height="424"/>
      <rect class="cls-18" x="0.5" y="0.5" width="451" height="423"/>
    </g>
    <g id="Ellipse_3" data-name="Ellipse 3" class="cls-2" transform="translate(564 -1286)">
      <ellipse class="cls-17" cx="107" cy="97" rx="107" ry="97"/>
      <ellipse class="cls-18" cx="107" cy="97" rx="106.5" ry="96.5"/>
    </g>
    <line id="Ligne_1" data-name="Ligne 1" class="cls-8" x2="47" y2="38" transform="translate(841.5 -1461.5)"/>
    <line id="Ligne_2" data-name="Ligne 2" class="cls-8" x1="47" y2="38" transform="translate(841.5 -1461.5)"/>
  </g>
  <g id="SPRK_default_preset_name_custom_4" data-name="SPRK_default_preset_name_custom – 4" class="cls-10">
    <rect class="cls-20" x="1350" y="-810" width="1280" height="720"/>
    <g id="Rectangle_20" data-name="Rectangle 20" class="cls-2" transform="translate(1610 -640)">
      <rect class="cls-17" width="841" height="410" rx="66"/>
      <rect class="cls-18" x="0.5" y="0.5" width="840" height="409" rx="65.5"/>
    </g>
    <g id="Rectangle_21" data-name="Rectangle 21" class="cls-2" transform="translate(1649 -724)">
      <rect class="cls-17" width="250" height="84" rx="42"/>
      <rect class="cls-18" x="0.5" y="0.5" width="249" height="83" rx="41.5"/>
    </g>
    <g id="Rectangle_22" data-name="Rectangle 22" class="cls-2" transform="translate(1648 -599)">
      <rect class="cls-17" width="227" height="89"/>
      <rect class="cls-18" x="0.5" y="0.5" width="226" height="88"/>
    </g>
    <g id="Rectangle_23" data-name="Rectangle 23" class="cls-2" transform="translate(2007 -599)">
      <rect class="cls-17" width="225" height="89"/>
      <rect class="cls-18" x="0.5" y="0.5" width="224" height="88"/>
    </g>
    <g id="Rectangle_24" data-name="Rectangle 24" class="cls-2" transform="translate(1673 -435)">
      <rect class="cls-17" width="202" height="106"/>
      <rect class="cls-18" x="0.5" y="0.5" width="201" height="105"/>
    </g>
    <g id="Rectangle_25" data-name="Rectangle 25" class="cls-2" transform="translate(2007 -435)">
      <rect class="cls-17" width="210" height="106"/>
      <rect class="cls-18" x="0.5" y="0.5" width="209" height="105"/>
    </g>
    <line id="Ligne_5" data-name="Ligne 5" class="cls-8" x2="67" y2="67" transform="translate(2356.5 -627.5)"/>
    <line id="Ligne_6" data-name="Ligne 6" class="cls-8" x1="62" y2="62" transform="translate(2356.5 -622.5)"/>
  </g>
  <g id="SPRK_default_preset_name_custom_6" data-name="SPRK_default_preset_name_custom – 6" class="cls-11">
    <rect class="cls-20" x="1350" y="-1620" width="1280" height="720"/>
    <text id="Lien_d_achat_" data-name="Lien d&apos;achat
" class="cls-12" transform="translate(1813 -1380)"><tspan x="0" y="76">Lien d&apos;achat</tspan></text>
    <line id="Ligne_7" data-name="Ligne 7" class="cls-8" x2="58" y2="58" transform="translate(2316.5 -1517.5)"/>
    <line id="Ligne_8" data-name="Ligne 8" class="cls-8" x1="58" y2="58" transform="translate(2316.5 -1517.5)"/>
  </g>
  <g id="SPRK_default_preset_name_custom_5" data-name="SPRK_default_preset_name_custom – 5" class="cls-13">
    <rect class="cls-20" x="2700" y="-810" width="1280" height="720"/>
    <g id="Rectangle_26" data-name="Rectangle 26" class="cls-2" transform="translate(2700 -184)">
      <rect class="cls-17" width="1280" height="94"/>
      <rect class="cls-18" x="0.5" y="0.5" width="1279" height="93"/>
    </g>
    <g id="Rectangle_27" data-name="Rectangle 27" class="cls-2" transform="translate(2700 -810)">
      <rect class="cls-17" width="69" height="626"/>
      <rect class="cls-18" x="0.5" y="0.5" width="68" height="625"/>
    </g>
    <g id="Rectangle_28" data-name="Rectangle 28" class="cls-2" transform="translate(2922 -810)">
      <rect class="cls-17" width="74" height="325"/>
      <rect class="cls-18" x="0.5" y="0.5" width="73" height="324"/>
    </g>
    <g id="Rectangle_29" data-name="Rectangle 29" class="cls-2" transform="translate(3318 -534)">
      <rect class="cls-17" width="275" height="49"/>
      <rect class="cls-18" x="0.5" y="0.5" width="274" height="48"/>
    </g>
    <g id="Rectangle_30" data-name="Rectangle 30" class="cls-2" transform="translate(3112 -339)">
      <rect class="cls-17" width="257" height="47"/>
      <rect class="cls-18" x="0.5" y="0.5" width="256" height="46"/>
    </g>
    <g id="Ellipse_4" data-name="Ellipse 4" class="cls-2" transform="translate(3434 -685)">
      <ellipse class="cls-17" cx="35" cy="75.5" rx="35" ry="75.5"/>
      <ellipse class="cls-18" cx="35" cy="75.5" rx="34.5" ry="75"/>
    </g>
    <g id="Ellipse_5" data-name="Ellipse 5" class="cls-2" transform="translate(2778 -390)">
      <ellipse class="cls-17" cx="37.5" cy="103" rx="37.5" ry="103"/>
      <ellipse class="cls-18" cx="37.5" cy="103" rx="37" ry="102.5"/>
    </g>
    <line id="Ligne_9" data-name="Ligne 9" class="cls-8" y1="51" x2="51" transform="translate(2922.5 -722.5)"/>
    <line id="Ligne_10" data-name="Ligne 10" class="cls-8" y1="159" transform="translate(2973.5 -722.5)"/>
  </g>
  <g id="SPRK_default_preset_name_custom_7" data-name="SPRK_default_preset_name_custom – 7" class="cls-14">
    <rect class="cls-20" x="-1350" y="-810" width="1280" height="720"/>
    <g id="Rectangle_31" data-name="Rectangle 31" class="cls-2" transform="translate(-959 -657)">
      <rect class="cls-17" width="499" height="414" rx="109"/>
      <rect class="cls-18" x="0.5" y="0.5" width="498" height="413" rx="108.5"/>
    </g>
    <text id="INFOS-2" data-name="INFOS" class="cls-15" transform="translate(-822 -512)"><tspan x="0" y="76">INFOS</tspan></text>
    <line id="Ligne_11" data-name="Ligne 11" class="cls-8" x2="52" y2="52" transform="translate(-563.5 -622.5)"/>
    <line id="Ligne_12" data-name="Ligne 12" class="cls-8" x1="42" y2="42" transform="translate(-553.5 -612.5)"/>
  </g>
  <g id="SPRK_default_preset_name_custom_8" data-name="SPRK_default_preset_name_custom – 8" class="cls-16">
    <rect class="cls-20" x="-2700" y="-810" width="1280" height="720"/>
    <g id="Rectangle_32" data-name="Rectangle 32" class="cls-2" transform="translate(-2474 -730)">
      <rect class="cls-17" width="856" height="544" rx="126"/>
      <rect class="cls-18" x="0.5" y="0.5" width="855" height="543" rx="125.5"/>
    </g>
    <g id="Rectangle_33" data-name="Rectangle 33" class="cls-2" transform="translate(-2401 -657)">
      <rect class="cls-17" width="697" height="37"/>
      <rect class="cls-18" x="0.5" y="0.5" width="696" height="36"/>
    </g>
    <g id="Rectangle_34" data-name="Rectangle 34" class="cls-2" transform="translate(-2401 -574)">
      <rect class="cls-17" width="697" height="37"/>
      <rect class="cls-18" x="0.5" y="0.5" width="696" height="36"/>
    </g>
    <g id="Rectangle_35" data-name="Rectangle 35" class="cls-2" transform="translate(-2401 -494)">
      <rect class="cls-17" width="697" height="36"/>
      <rect class="cls-18" x="0.5" y="0.5" width="696" height="35"/>
    </g>
    <g id="Rectangle_36" data-name="Rectangle 36" class="cls-2" transform="translate(-2401 -401)">
      <rect class="cls-17" width="697" height="46"/>
      <rect class="cls-18" x="0.5" y="0.5" width="696" height="45"/>
    </g>
    <g id="Rectangle_37" data-name="Rectangle 37" class="cls-2" transform="translate(-2401 -292)">
      <rect class="cls-17" width="697" height="43"/>
      <rect class="cls-18" x="0.5" y="0.5" width="696" height="42"/>
    </g>
    <line id="Ligne_13" data-name="Ligne 13" class="cls-8" x2="53" y2="53" transform="translate(-1703.5 -709.5)"/>
    <line id="Ligne_14" data-name="Ligne 14" class="cls-8" y1="53" x2="53" transform="translate(-1703.5 -709.5)"/>
  </g>
</svg>
